<svg width="1134" height="542" viewBox="0 0 1134 542" fill="none" xmlns="http://www.w3.org/2000/svg">
<path fill-rule="evenodd" clip-rule="evenodd" d="M522.241 0.631634C502.132 3.40463 484.624 13.0036 471.963 28.1996C465.916 35.458 458.099 51.185 454.772 62.789C447.925 86.667 446.59 123.402 451.688 147.637C459.253 183.603 479.28 209.504 506.627 218.694C519.389 222.982 530.849 224.231 543.716 222.735C562.454 220.557 574 215.329 586.927 203.168C601.502 189.457 610.854 171.577 615.854 147.865C618.27 136.411 618.552 132.944 618.601 114.1C618.68 83.768 615.407 66.765 605.706 47.1C596.055 27.5376 585.658 16.4206 569.68 8.57563C555.56 1.64363 537.201 -1.43037 522.241 0.631634ZM890.18 0.593632C871.26 2.94063 857.526 9.33963 844.445 21.9006C837.575 28.4976 829.624 40.143 824.924 50.495C820.743 59.702 816.594 76.902 815.13 91.1C813.672 105.251 814.394 129.946 816.643 142.771C822.328 175.203 838.577 201.376 860.68 213.707C869.888 218.844 877.805 221.238 890.038 222.584C920.803 225.97 949.402 211.873 965.328 185.474C978.397 163.811 983.538 142.596 983.473 110.6C983.408 78.892 978.073 57.815 964.779 36.757C948.869 11.5536 918.908 -2.97037 890.18 0.593632ZM283.43 4.20864C282.478 4.63364 282.18 10.6996 282.18 29.6116C282.18 50.865 282.407 54.684 283.751 56.029C285.754 58.031 286.066 58.005 289.68 55.54C294.917 51.969 305.52 46.939 310.18 45.817C317.012 44.172 335.781 43.146 336.542 44.377C337.561 46.026 337.296 185.501 336.262 191.72C334.865 200.118 333.494 204.494 330.285 210.786C328.691 213.914 327.64 216.727 327.95 217.036C328.26 217.346 343.752 217.6 362.378 217.6C391.906 217.6 396.318 217.403 396.832 216.064C397.156 215.22 396.22 211.852 394.752 208.581C388.872 195.478 388.879 195.59 388.447 116.208L388.05 43.315L399.365 43.864C415.203 44.631 420.003 45.925 428.772 51.79C432.962 54.592 436.89 56.541 437.713 56.226C438.947 55.752 439.178 51.81 439.165 31.381C439.156 17.8296 438.73 6.43664 438.201 5.59964C437.374 4.29064 427.524 4.07064 360.967 3.87564C319.009 3.75264 284.118 3.90264 283.43 4.20864ZM633.912 5.01063C632.064 6.85863 632.411 8.15664 636.208 13.5996C637.167 14.9746 638.997 19.2496 640.276 23.0996L642.6 30.1L642.954 102.1C643.168 145.72 642.909 178.436 642.296 185.1C641.211 196.914 638.185 208.364 634.943 212.927C633.602 214.814 633.267 216.087 633.935 216.755C634.586 217.406 649.44 217.605 676.308 217.323C713.28 216.935 718.532 216.678 725.689 214.907C748.175 209.341 762.944 200.351 774.248 185.349C784.487 171.761 790.142 158.216 793.827 138.452C796.335 124.996 796.317 91.866 793.794 78.1C786.309 37.261 763.184 12.4936 726.578 6.10963C720.494 5.04863 706.166 4.42763 676.836 3.95163C638.609 3.33163 635.515 3.40763 633.912 5.01063ZM909.843 30.679C914.849 33.102 919.227 38.263 922.639 45.764C928.518 58.686 931.864 89.655 930.819 121.46C929.48 162.225 923.187 183.809 910.459 191.291C906.333 193.716 904.638 194.096 898.057 194.074C891.255 194.051 889.97 193.727 886.131 191.074C883.765 189.438 880.556 186.097 879.001 183.649C871.543 171.909 869.15 158.713 868.456 125.484C867.247 67.647 873.936 37.611 889.609 30.493C895.258 27.9266 904.331 28.0106 909.843 30.679ZM545.137 33.444C553.161 37.578 559.371 50.354 562.786 69.757C564.994 82.306 565.853 127.282 564.192 143.405C560.749 176.819 550.407 194.6 534.416 194.6C519.253 194.6 509.731 180.847 505.511 152.852C503.497 139.495 503.213 91.038 505.063 76.606C508.416 50.453 515.554 36.499 527.716 32.323C533.514 30.332 539.893 30.743 545.137 33.444ZM711.715 34.691C719.516 36.133 723.897 38.484 728.904 43.916C740.82 56.844 744.819 75.914 743.83 115.1C743.169 141.287 741.435 152.15 736.234 162.678C729.15 177.019 716.25 184.898 698.513 185.717L692.68 185.986L692.739 140.043C692.771 114.774 692.884 80.487 692.989 63.85L693.18 33.6H699.496C702.97 33.6 708.469 34.091 711.715 34.691Z" fill="#6CBBDD"/>
<path fill-rule="evenodd" clip-rule="evenodd" d="M299.887 124.12C283.579 130.109 262.222 146.506 249.337 162.935C223.957 195.295 212.706 218.176 185.769 292.205C157.54 369.782 139.377 405.287 115.557 429.444C102.849 442.332 95.7127 446.477 82.3243 448.748C67.671 451.233 57.5436 447.652 50.6209 437.538C46.1442 431 46.3859 429.128 52.9742 419.297C56.1012 414.628 58.6559 409.916 58.6514 408.824C58.6307 404.958 52.7163 397.483 47.9024 395.24C41.8673 392.43 29.5306 392.372 24.3571 395.131C17.9448 398.55 10.1624 407.769 6.15896 416.69C2.76136 424.259 2.45105 426.368 3.09335 437.53C3.94746 452.359 7.00742 459.144 17.5072 469.494C31.3377 483.123 52.9126 489.532 73.3971 486.094C108.72 480.167 139.752 457.164 164.621 418.473C183.212 389.549 198.169 355.391 216.818 299.271C242.939 220.663 249.92 203.418 263.959 182.831C270.119 173.799 279.771 162.628 279.727 164.585C279.719 164.929 278.467 169.278 276.945 174.246C275.384 179.344 273.562 191.709 272.765 202.625C271.011 226.623 272.276 240.301 281.345 295.404C290.606 351.67 292.858 371.071 293.135 397.006C293.349 417.028 292.994 420.63 289.58 432.925C284.453 451.388 284.358 454.771 288.921 456.361C298.041 459.541 313.432 449.937 325.791 433.355C338.008 416.963 346.234 399.272 373.333 331.129C406.967 246.55 427.356 211.217 458.462 183.61C503.573 140.498 538.36 162.323 500.073 208.224L494.191 218.119L497.575 220.818C505.956 227.506 526.176 214.648 533.836 200.565C552.246 176.097 547.291 138.329 524.033 131.746C499.61 124.832 464.331 139.854 434.202 169.996C405.697 198.514 383.215 239.007 352.937 316.356C345.928 334.262 339.016 351.232 337.578 354.066L334.965 359.219L334.632 335.256C334.266 309.055 331.381 282.203 324.659 242.44C314.764 183.912 315.305 158.491 326.993 132.958C328.53 129.599 329.783 126.222 329.778 125.452C329.745 120.555 311.776 119.753 299.887 124.12ZM1004.51 167.459C979.382 173.096 947.638 196.957 927.865 225.072C923.214 231.686 920.824 233.737 916.218 235.064C909.919 236.877 891.831 237.699 890.347 236.239C889.844 235.743 890.156 231 891.043 225.697C893.359 211.856 892.038 192.278 888.371 186.104C884.257 179.175 877.055 174.779 869.906 174.835C854.297 174.955 841.741 193.695 841.557 217.15C841.46 229.387 845.34 238.711 853.177 245.076L858.161 249.124L853.317 262.663C845.125 285.555 838.994 299.134 829.852 314.636C813.654 342.099 802.051 354.169 790.249 355.831C781.867 357.013 778.943 353.053 779.102 340.736C779.171 335.477 779.998 327.306 780.94 322.579C783.321 310.647 794.198 278.556 806.299 247.772C825.528 198.85 825.357 199.501 819.965 196.197C814.808 193.038 807.645 192.349 798.018 194.093C787.415 196.013 781.087 199.601 777.37 205.802C775.874 208.299 771.108 221.462 766.78 235.051C757.727 263.474 746.252 288.286 735.445 302.81C711.585 334.874 702.891 344.806 690.017 354.704C675.6 365.791 666.424 370.088 654.954 371.128C643.086 372.204 637.625 369.861 633.864 362.082C630.685 355.506 629.035 336.758 631.384 333.891C632.277 332.802 636.165 331.515 640.027 331.031C648.236 330.004 664.886 324.491 676.879 318.831C708.012 304.138 735.519 272.544 740.223 246.077C742.958 230.684 737.381 215.871 726.484 209.59C707.771 198.804 681.688 203.058 658.163 220.732C636.397 237.085 611.761 268.256 601.311 292.666C598.839 298.443 594.972 309.687 592.719 317.655C588.301 333.279 583.94 340.755 567.421 361.016C556.25 374.716 548.153 381.886 542.372 383.195C531.988 385.547 531.78 372.853 541.711 342.946C551.242 314.241 573.155 263.262 584.133 244.253C593.11 228.71 591.036 226.14 570.813 227.748C555.773 228.943 547.432 231.812 542.199 237.583C540.457 239.506 536.546 247.859 533.511 256.144C522.883 285.158 507.584 321.746 499.212 338.168C483.203 369.577 460.539 395.864 449.406 395.94C444.742 395.972 443.705 393.918 443.641 384.528C443.56 372.671 454.509 341.605 479.775 282.002C487.066 264.808 493.01 249.583 492.989 248.17C492.9 242.331 490.682 241.308 478.288 241.392C461.34 241.509 454.669 244.402 448.86 254.161C443.1 263.833 424.397 309.426 410.616 347.387C399.974 376.708 399.905 376.985 399.929 391.252C399.95 403.985 400.364 406.331 403.588 411.979C414.244 430.644 434.536 433.634 456.009 419.704C465.987 413.231 481.182 397.87 488.923 386.43L494.615 378.019L495.498 387.897C497.168 406.572 506.161 415.861 522.467 415.749C538.849 415.638 559.922 399.995 579.393 373.494C584.631 366.364 589.035 360.529 589.177 360.528C589.321 360.527 589.583 362.138 589.759 364.109C589.936 366.079 591.952 371.718 594.239 376.642C599.747 388.499 608.914 396.786 619.987 399.921C649.919 408.393 696.54 384.39 727.612 344.508C731.943 338.95 735.888 333.928 736.377 333.347C736.869 332.766 737.041 336.91 736.759 342.555C735.798 361.885 741.758 375.561 754.112 382.376C759.492 385.345 762.416 385.907 772.057 385.825C782.565 385.738 784.644 385.207 795.729 379.787C802.414 376.52 811.74 370.514 816.455 366.44C839.133 346.853 862.299 311.516 877.632 273.131C879.844 267.587 882.022 262.642 882.47 262.141C882.916 261.638 889.156 260.876 896.332 260.445L909.383 259.662L905.233 271.966C902.707 279.452 900.535 289.931 899.688 298.731C896.7 329.726 907.257 353.765 928.799 365.018C945.204 373.589 963.159 374.079 984.119 366.526C1000.17 360.74 1010 354.228 1024.71 339.612C1039.04 325.361 1046.14 315.506 1055.08 297.407L1060.97 285.521L1068.5 285.452C1092.71 285.233 1118.88 268.242 1127.56 247.117C1130.05 241.026 1130.19 227.424 1127.78 225.048C1124.49 221.805 1122.27 223.394 1115.81 233.614C1108.19 245.672 1101.36 252.501 1092.03 257.408C1085.21 260.988 1069.44 265.862 1068.31 264.738C1067.96 264.406 1068.42 260.694 1069.3 256.488C1071.9 243.97 1072.55 222.316 1070.63 211.717C1064.2 176.228 1039.4 159.633 1004.51 167.459ZM1030.03 190.211C1040.38 195.467 1044.63 220.167 1039.89 247.518C1038.43 255.965 1036.83 261.276 1035.77 261.284C1031.59 261.312 1018.78 253.545 1013.24 247.62C1004.34 238.098 999.603 227.026 999.554 215.584C999.501 204.779 1001.79 199.405 1009.26 192.758C1015.09 187.578 1022.95 186.612 1030.03 190.211ZM701.888 229.92C704.083 232.085 704.769 235.904 704.316 243.442C703.137 263.01 678.221 294.91 655.368 306.106C649.698 308.884 642.872 311.604 640.199 312.15C635.434 313.126 635.359 313.065 636.324 309.033C640.251 292.6 657.669 260.422 671.632 243.805C683.706 229.436 695.776 223.896 701.888 229.92ZM980.987 250.019C985.589 258.33 997.929 270.262 1006.07 274.279C1008.94 275.694 1014.86 277.97 1019.22 279.338C1023.57 280.708 1027.62 282.094 1028.2 282.422C1031.62 284.327 1009.43 318.952 998.325 329.057C985.934 340.32 980.654 342.711 967.912 342.833C954.92 342.957 950.862 340.775 945.986 331.055C943.068 325.24 942.627 322.243 942.565 307.866C942.492 291.048 944.031 282.414 950.001 266.159C953.063 257.817 965.886 234.132 969.713 229.745C971.809 227.345 972.115 227.679 974.379 234.817C975.712 239.022 978.686 245.861 980.987 250.019Z" fill="#6076CD"/>
<path fill-rule="evenodd" clip-rule="evenodd" d="M522.244 0.631634C502.135 3.40463 484.627 13.0036 471.966 28.1996C465.919 35.458 458.102 51.185 454.775 62.789C447.928 86.667 446.593 123.402 451.691 147.637C459.256 183.603 479.283 209.504 506.63 218.694C519.392 222.982 530.852 224.231 543.719 222.735C562.457 220.557 574.003 215.329 586.93 203.168C601.505 189.457 610.857 171.577 615.857 147.865C618.273 136.411 618.555 132.944 618.604 114.1C618.683 83.768 615.411 66.765 605.71 47.1C596.059 27.5376 585.662 16.4206 569.684 8.57563C555.564 1.64363 537.204 -1.43037 522.244 0.631634ZM545.14 33.444C553.164 37.578 559.374 50.354 562.789 69.757C564.997 82.306 565.856 127.282 564.195 143.405C560.752 176.819 550.41 194.6 534.419 194.6C519.256 194.6 509.734 180.847 505.514 152.852C503.5 139.495 503.216 91.038 505.066 76.606C508.419 50.453 515.557 36.499 527.719 32.323C533.517 30.332 539.896 30.743 545.14 33.444Z" fill="#6CBBDD"/>
<path d="M515.199 182.692L542.768 182.104C537.897 198.872 526.152 211.709 512.18 220.5L496.157 214.999C504.877 200.909 509.851 198.902 515.199 182.692Z" fill="#6076CD"/>
<mask id="path-5-outside-1_1207_618" maskUnits="userSpaceOnUse" x="134.18" y="508" width="863" height="32" fill="black">
<rect fill="white" x="134.18" y="508" width="863" height="32"/>
<path d="M145.411 538.423V516.047H135.18V509.577H165.017V516.047H154.834V538.423H145.411ZM170.948 538.423L185.652 509.577H194.932L209.684 538.423H199.881L188.365 513.574H192.076L180.56 538.423H170.948ZM178.99 532.819L181.417 526.802H197.692L200.119 532.819H178.99ZM220.445 538.423V509.577H235.673C238.719 509.577 241.336 510.003 243.525 510.854C245.746 511.706 247.459 512.942 248.665 514.563C249.87 516.157 250.473 518.052 250.473 520.25C250.473 522.42 249.87 524.302 248.665 525.896C247.459 527.462 245.746 528.67 243.525 529.522C241.336 530.346 238.719 530.758 235.673 530.758H225.68L229.867 527.338V538.423H220.445ZM241.051 538.423L232.77 527.915H242.811L251.139 538.423H241.051ZM229.867 528.203L225.68 524.453H235.102C237.069 524.453 238.529 524.082 239.48 523.341C240.464 522.599 240.955 521.569 240.955 520.25C240.955 518.904 240.464 517.86 239.48 517.118C238.529 516.376 237.069 516.006 235.102 516.006H225.68L229.867 512.255V528.203ZM263.761 538.423V509.577H279.513C283.193 509.577 286.429 510.168 289.221 511.349C292.012 512.53 294.186 514.192 295.74 516.335C297.327 518.478 298.12 521.033 298.12 524C298.12 526.94 297.327 529.495 295.74 531.665C294.186 533.808 292.012 535.47 289.221 536.651C286.429 537.832 283.193 538.423 279.513 538.423H263.761ZM273.183 531.912H279.132C281.036 531.912 282.685 531.61 284.081 531.006C285.509 530.374 286.619 529.467 287.412 528.286C288.206 527.077 288.602 525.648 288.602 524C288.602 522.324 288.206 520.896 287.412 519.714C286.619 518.533 285.509 517.64 284.081 517.036C282.685 516.404 281.036 516.088 279.132 516.088H273.183V531.912ZM319.828 520.744H335.294V526.843H319.828V520.744ZM320.494 532.118H337.912V538.423H311.167V509.577H337.293V515.882H320.494V532.118ZM373.168 538.423V509.577H388.92C392.601 509.577 395.836 510.168 398.628 511.349C401.421 512.53 403.596 514.192 405.147 516.335C406.736 518.478 407.525 521.033 407.525 524C407.525 526.94 406.736 529.495 405.147 531.665C403.596 533.808 401.421 535.47 398.628 536.651C395.836 537.832 392.601 538.423 388.92 538.423H373.168ZM382.589 531.912H388.539C390.443 531.912 392.094 531.61 393.49 531.006C394.919 530.374 396.029 529.467 396.818 528.286C397.613 527.077 398.01 525.648 398.01 524C398.01 522.324 397.613 520.896 396.818 519.714C396.029 518.533 394.919 517.64 393.49 517.036C392.094 516.404 390.443 516.088 388.539 516.088H382.589V531.912ZM429.238 520.744H444.703V526.843H429.238V520.744ZM429.9 532.118H447.319V538.423H420.573V509.577H446.701V515.882H429.9V532.118ZM491.236 520.744H506.706V526.843H491.236V520.744ZM491.904 532.118H509.322V538.423H482.576V509.577H508.704V515.882H491.904V532.118ZM534.346 539C531.62 539 528.982 538.712 526.448 538.135C523.943 537.53 521.895 536.761 520.305 535.827L523.402 529.81C524.892 530.635 526.603 531.321 528.54 531.871C530.505 532.393 532.459 532.654 534.396 532.654C535.693 532.654 536.742 532.558 537.537 532.365C538.326 532.146 538.9 531.871 539.248 531.541C539.628 531.184 539.816 530.772 539.816 530.305C539.816 529.646 539.468 529.124 538.773 528.739C538.072 528.354 537.172 528.038 536.057 527.791C534.948 527.544 533.712 527.297 532.348 527.049C531.013 526.802 529.666 526.486 528.303 526.102C526.967 525.717 525.747 525.223 524.638 524.618C523.529 523.986 522.624 523.176 521.928 522.187C521.227 521.17 520.88 519.893 520.88 518.354C520.88 516.624 521.42 515.058 522.497 513.657C523.606 512.255 525.256 511.129 527.447 510.277C529.633 509.426 532.365 509 535.632 509C537.818 509 539.96 509.22 542.057 509.659C544.182 510.071 546.069 510.69 547.72 511.514L544.816 517.571C543.227 516.83 541.659 516.28 540.103 515.923C538.552 515.538 537.045 515.346 535.583 515.346C534.28 515.346 533.237 515.47 532.442 515.717C531.648 515.937 531.079 516.239 530.731 516.624C530.378 517.008 530.207 517.448 530.207 517.942C530.207 518.574 530.538 519.082 531.206 519.467C531.901 519.824 532.807 520.126 533.916 520.374C535.058 520.593 536.295 520.827 537.63 521.074C538.994 521.321 540.34 521.637 541.676 522.022C543.039 522.379 544.276 522.874 545.385 523.506C546.494 524.11 547.383 524.92 548.051 525.937C548.752 526.926 549.099 528.176 549.099 529.687C549.099 531.363 548.542 532.915 547.433 534.343C546.356 535.744 544.723 536.871 542.531 537.723C540.373 538.574 537.647 539 534.346 539ZM561.54 538.423V509.577H576.767C579.814 509.577 582.43 510.003 584.621 510.854C586.84 511.706 588.556 512.942 589.76 514.563C590.968 516.157 591.57 518.052 591.57 520.25C591.57 522.42 590.968 524.302 589.76 525.896C588.556 527.489 586.84 528.725 584.621 529.604C582.43 530.456 579.814 530.882 576.767 530.882H566.777L570.961 527.338V538.423H561.54ZM570.961 528.203L566.777 524.453H576.199C578.164 524.453 579.626 524.082 580.576 523.341C581.558 522.599 582.049 521.569 582.049 520.25C582.049 518.904 581.558 517.86 580.576 517.118C579.626 516.376 578.164 516.006 576.199 516.006H566.777L570.961 512.255V528.203ZM598.585 538.423L613.288 509.577H622.566L637.319 538.423H627.517L615.998 513.574H619.712L608.194 538.423H598.585ZM606.626 532.819L609.049 526.802H625.326L627.754 532.819H606.626ZM648.081 538.423V509.577H663.309C666.356 509.577 668.972 510.003 671.163 510.854C673.382 511.706 675.093 512.942 676.301 514.563C677.504 516.157 678.112 518.052 678.112 520.25C678.112 522.42 677.504 524.302 676.301 525.896C675.093 527.462 673.382 528.67 671.163 529.522C668.972 530.346 666.356 530.758 663.309 530.758H653.314L657.503 527.338V538.423H648.081ZM668.685 538.423L660.406 527.915H670.445L678.774 538.423H668.685ZM657.503 528.203L653.314 524.453H662.74C664.705 524.453 666.162 524.082 667.117 523.341C668.1 522.599 668.591 521.569 668.591 520.25C668.591 518.904 668.1 517.86 667.117 517.118C666.162 516.376 664.705 516.006 662.74 516.006H653.314L657.503 512.255V528.203ZM708.004 539C705.371 539 702.932 538.643 700.674 537.929C698.456 537.187 696.518 536.143 694.873 534.797C693.251 533.451 691.981 531.871 691.065 530.058C690.143 528.217 689.685 526.198 689.685 524C689.685 521.802 690.143 519.797 691.065 517.984C691.981 516.143 693.251 514.549 694.873 513.203C696.518 511.857 698.456 510.827 700.674 510.113C702.932 509.371 705.371 509 708.004 509C711.083 509 713.827 509.467 716.238 510.401C718.683 511.335 720.709 512.681 722.332 514.44L716.332 519.137C715.256 518.038 714.064 517.201 712.767 516.624C711.497 516.047 710.068 515.758 708.484 515.758C707.115 515.758 705.862 515.951 704.72 516.335C703.577 516.72 702.595 517.283 701.773 518.025C700.978 518.739 700.343 519.604 699.868 520.621C699.421 521.637 699.201 522.764 699.201 524C699.201 525.236 699.421 526.363 699.868 527.379C700.343 528.396 700.978 529.275 701.773 530.017C702.595 530.731 703.577 531.28 704.72 531.665C705.862 532.049 707.115 532.242 708.484 532.242C710.068 532.242 711.497 531.953 712.767 531.376C714.064 530.799 715.256 529.962 716.332 528.863L722.332 533.56C720.709 535.291 718.683 536.637 716.238 537.599C713.827 538.533 711.083 539 708.004 539ZM734.623 538.423V509.577H744.044V538.423H734.623ZM758.836 538.423V509.577H766.59L780.394 529.192H776.299L789.722 509.577H797.476L797.57 538.423H788.91L788.816 520.992H790.29L780.251 535.58H776.061L765.735 520.992H767.545V538.423H758.836ZM812.328 538.423V509.577H821.75V538.423H812.328ZM845.206 520.744H860.671V526.843H845.206V520.744ZM845.874 532.118H863.288V538.423H836.547V509.577H862.669V515.882H845.874V532.118ZM876.605 538.423V509.577H884.365L902.734 528.78H899.069V509.577H908.302V538.423H900.542L882.174 519.22H885.839V538.423H876.605ZM930.131 538.423V516.047H919.898V509.577H949.735V516.047H939.552V538.423H930.131ZM977.668 539C975.002 539 972.546 538.629 970.294 537.887C968.043 537.146 966.072 536.102 964.394 534.755C962.744 533.382 961.458 531.788 960.537 529.975C959.615 528.162 959.157 526.17 959.157 524C959.157 521.83 959.615 519.838 960.537 518.025C961.458 516.212 962.744 514.632 964.394 513.286C966.072 511.912 968.043 510.854 970.294 510.113C972.546 509.371 975.002 509 977.668 509C980.367 509 982.823 509.371 985.047 510.113C987.299 510.854 989.248 511.912 990.898 513.286C992.548 514.632 993.834 516.212 994.756 518.025C995.705 519.838 996.18 521.83 996.18 524C996.18 526.17 995.705 528.176 994.756 530.017C993.834 531.83 992.548 533.409 990.898 534.755C989.248 536.102 987.299 537.146 985.047 537.887C982.823 538.629 980.367 539 977.668 539ZM977.668 532.242C978.938 532.242 980.113 532.049 981.19 531.665C982.299 531.28 983.254 530.731 984.048 530.017C984.871 529.275 985.505 528.396 985.947 527.379C986.427 526.363 986.665 525.236 986.665 524C986.665 522.736 986.427 521.61 985.947 520.621C985.505 519.604 984.871 518.739 984.048 518.025C983.254 517.283 982.299 516.72 981.19 516.335C980.113 515.951 978.938 515.758 977.668 515.758C976.399 515.758 975.212 515.951 974.097 516.335C973.021 516.72 972.072 517.283 971.244 518.025C970.449 518.739 969.814 519.604 969.34 520.621C968.898 521.61 968.677 522.736 968.677 524C968.677 525.236 968.898 526.363 969.34 527.379C969.814 528.396 970.449 529.275 971.244 530.017C972.072 530.731 973.021 531.28 974.097 531.665C975.212 532.049 976.399 532.242 977.668 532.242Z"/>
</mask>
<path d="M145.411 538.423V516.047H135.18V509.577H165.017V516.047H154.834V538.423H145.411ZM170.948 538.423L185.652 509.577H194.932L209.684 538.423H199.881L188.365 513.574H192.076L180.56 538.423H170.948ZM178.99 532.819L181.417 526.802H197.692L200.119 532.819H178.99ZM220.445 538.423V509.577H235.673C238.719 509.577 241.336 510.003 243.525 510.854C245.746 511.706 247.459 512.942 248.665 514.563C249.87 516.157 250.473 518.052 250.473 520.25C250.473 522.42 249.87 524.302 248.665 525.896C247.459 527.462 245.746 528.67 243.525 529.522C241.336 530.346 238.719 530.758 235.673 530.758H225.68L229.867 527.338V538.423H220.445ZM241.051 538.423L232.77 527.915H242.811L251.139 538.423H241.051ZM229.867 528.203L225.68 524.453H235.102C237.069 524.453 238.529 524.082 239.48 523.341C240.464 522.599 240.955 521.569 240.955 520.25C240.955 518.904 240.464 517.86 239.48 517.118C238.529 516.376 237.069 516.006 235.102 516.006H225.68L229.867 512.255V528.203ZM263.761 538.423V509.577H279.513C283.193 509.577 286.429 510.168 289.221 511.349C292.012 512.53 294.186 514.192 295.74 516.335C297.327 518.478 298.12 521.033 298.12 524C298.12 526.94 297.327 529.495 295.74 531.665C294.186 533.808 292.012 535.47 289.221 536.651C286.429 537.832 283.193 538.423 279.513 538.423H263.761ZM273.183 531.912H279.132C281.036 531.912 282.685 531.61 284.081 531.006C285.509 530.374 286.619 529.467 287.412 528.286C288.206 527.077 288.602 525.648 288.602 524C288.602 522.324 288.206 520.896 287.412 519.714C286.619 518.533 285.509 517.64 284.081 517.036C282.685 516.404 281.036 516.088 279.132 516.088H273.183V531.912ZM319.828 520.744H335.294V526.843H319.828V520.744ZM320.494 532.118H337.912V538.423H311.167V509.577H337.293V515.882H320.494V532.118ZM373.168 538.423V509.577H388.92C392.601 509.577 395.836 510.168 398.628 511.349C401.421 512.53 403.596 514.192 405.147 516.335C406.736 518.478 407.525 521.033 407.525 524C407.525 526.94 406.736 529.495 405.147 531.665C403.596 533.808 401.421 535.47 398.628 536.651C395.836 537.832 392.601 538.423 388.92 538.423H373.168ZM382.589 531.912H388.539C390.443 531.912 392.094 531.61 393.49 531.006C394.919 530.374 396.029 529.467 396.818 528.286C397.613 527.077 398.01 525.648 398.01 524C398.01 522.324 397.613 520.896 396.818 519.714C396.029 518.533 394.919 517.64 393.49 517.036C392.094 516.404 390.443 516.088 388.539 516.088H382.589V531.912ZM429.238 520.744H444.703V526.843H429.238V520.744ZM429.9 532.118H447.319V538.423H420.573V509.577H446.701V515.882H429.9V532.118ZM491.236 520.744H506.706V526.843H491.236V520.744ZM491.904 532.118H509.322V538.423H482.576V509.577H508.704V515.882H491.904V532.118ZM534.346 539C531.62 539 528.982 538.712 526.448 538.135C523.943 537.53 521.895 536.761 520.305 535.827L523.402 529.81C524.892 530.635 526.603 531.321 528.54 531.871C530.505 532.393 532.459 532.654 534.396 532.654C535.693 532.654 536.742 532.558 537.537 532.365C538.326 532.146 538.9 531.871 539.248 531.541C539.628 531.184 539.816 530.772 539.816 530.305C539.816 529.646 539.468 529.124 538.773 528.739C538.072 528.354 537.172 528.038 536.057 527.791C534.948 527.544 533.712 527.297 532.348 527.049C531.013 526.802 529.666 526.486 528.303 526.102C526.967 525.717 525.747 525.223 524.638 524.618C523.529 523.986 522.624 523.176 521.928 522.187C521.227 521.17 520.88 519.893 520.88 518.354C520.88 516.624 521.42 515.058 522.497 513.657C523.606 512.255 525.256 511.129 527.447 510.277C529.633 509.426 532.365 509 535.632 509C537.818 509 539.96 509.22 542.057 509.659C544.182 510.071 546.069 510.69 547.72 511.514L544.816 517.571C543.227 516.83 541.659 516.28 540.103 515.923C538.552 515.538 537.045 515.346 535.583 515.346C534.28 515.346 533.237 515.47 532.442 515.717C531.648 515.937 531.079 516.239 530.731 516.624C530.378 517.008 530.207 517.448 530.207 517.942C530.207 518.574 530.538 519.082 531.206 519.467C531.901 519.824 532.807 520.126 533.916 520.374C535.058 520.593 536.295 520.827 537.63 521.074C538.994 521.321 540.34 521.637 541.676 522.022C543.039 522.379 544.276 522.874 545.385 523.506C546.494 524.11 547.383 524.92 548.051 525.937C548.752 526.926 549.099 528.176 549.099 529.687C549.099 531.363 548.542 532.915 547.433 534.343C546.356 535.744 544.723 536.871 542.531 537.723C540.373 538.574 537.647 539 534.346 539ZM561.54 538.423V509.577H576.767C579.814 509.577 582.43 510.003 584.621 510.854C586.84 511.706 588.556 512.942 589.76 514.563C590.968 516.157 591.57 518.052 591.57 520.25C591.57 522.42 590.968 524.302 589.76 525.896C588.556 527.489 586.84 528.725 584.621 529.604C582.43 530.456 579.814 530.882 576.767 530.882H566.777L570.961 527.338V538.423H561.54ZM570.961 528.203L566.777 524.453H576.199C578.164 524.453 579.626 524.082 580.576 523.341C581.558 522.599 582.049 521.569 582.049 520.25C582.049 518.904 581.558 517.86 580.576 517.118C579.626 516.376 578.164 516.006 576.199 516.006H566.777L570.961 512.255V528.203ZM598.585 538.423L613.288 509.577H622.566L637.319 538.423H627.517L615.998 513.574H619.712L608.194 538.423H598.585ZM606.626 532.819L609.049 526.802H625.326L627.754 532.819H606.626ZM648.081 538.423V509.577H663.309C666.356 509.577 668.972 510.003 671.163 510.854C673.382 511.706 675.093 512.942 676.301 514.563C677.504 516.157 678.112 518.052 678.112 520.25C678.112 522.42 677.504 524.302 676.301 525.896C675.093 527.462 673.382 528.67 671.163 529.522C668.972 530.346 666.356 530.758 663.309 530.758H653.314L657.503 527.338V538.423H648.081ZM668.685 538.423L660.406 527.915H670.445L678.774 538.423H668.685ZM657.503 528.203L653.314 524.453H662.74C664.705 524.453 666.162 524.082 667.117 523.341C668.1 522.599 668.591 521.569 668.591 520.25C668.591 518.904 668.1 517.86 667.117 517.118C666.162 516.376 664.705 516.006 662.74 516.006H653.314L657.503 512.255V528.203ZM708.004 539C705.371 539 702.932 538.643 700.674 537.929C698.456 537.187 696.518 536.143 694.873 534.797C693.251 533.451 691.981 531.871 691.065 530.058C690.143 528.217 689.685 526.198 689.685 524C689.685 521.802 690.143 519.797 691.065 517.984C691.981 516.143 693.251 514.549 694.873 513.203C696.518 511.857 698.456 510.827 700.674 510.113C702.932 509.371 705.371 509 708.004 509C711.083 509 713.827 509.467 716.238 510.401C718.683 511.335 720.709 512.681 722.332 514.44L716.332 519.137C715.256 518.038 714.064 517.201 712.767 516.624C711.497 516.047 710.068 515.758 708.484 515.758C707.115 515.758 705.862 515.951 704.72 516.335C703.577 516.72 702.595 517.283 701.773 518.025C700.978 518.739 700.343 519.604 699.868 520.621C699.421 521.637 699.201 522.764 699.201 524C699.201 525.236 699.421 526.363 699.868 527.379C700.343 528.396 700.978 529.275 701.773 530.017C702.595 530.731 703.577 531.28 704.72 531.665C705.862 532.049 707.115 532.242 708.484 532.242C710.068 532.242 711.497 531.953 712.767 531.376C714.064 530.799 715.256 529.962 716.332 528.863L722.332 533.56C720.709 535.291 718.683 536.637 716.238 537.599C713.827 538.533 711.083 539 708.004 539ZM734.623 538.423V509.577H744.044V538.423H734.623ZM758.836 538.423V509.577H766.59L780.394 529.192H776.299L789.722 509.577H797.476L797.57 538.423H788.91L788.816 520.992H790.29L780.251 535.58H776.061L765.735 520.992H767.545V538.423H758.836ZM812.328 538.423V509.577H821.75V538.423H812.328ZM845.206 520.744H860.671V526.843H845.206V520.744ZM845.874 532.118H863.288V538.423H836.547V509.577H862.669V515.882H845.874V532.118ZM876.605 538.423V509.577H884.365L902.734 528.78H899.069V509.577H908.302V538.423H900.542L882.174 519.22H885.839V538.423H876.605ZM930.131 538.423V516.047H919.898V509.577H949.735V516.047H939.552V538.423H930.131ZM977.668 539C975.002 539 972.546 538.629 970.294 537.887C968.043 537.146 966.072 536.102 964.394 534.755C962.744 533.382 961.458 531.788 960.537 529.975C959.615 528.162 959.157 526.17 959.157 524C959.157 521.83 959.615 519.838 960.537 518.025C961.458 516.212 962.744 514.632 964.394 513.286C966.072 511.912 968.043 510.854 970.294 510.113C972.546 509.371 975.002 509 977.668 509C980.367 509 982.823 509.371 985.047 510.113C987.299 510.854 989.248 511.912 990.898 513.286C992.548 514.632 993.834 516.212 994.756 518.025C995.705 519.838 996.18 521.83 996.18 524C996.18 526.17 995.705 528.176 994.756 530.017C993.834 531.83 992.548 533.409 990.898 534.755C989.248 536.102 987.299 537.146 985.047 537.887C982.823 538.629 980.367 539 977.668 539ZM977.668 532.242C978.938 532.242 980.113 532.049 981.19 531.665C982.299 531.28 983.254 530.731 984.048 530.017C984.871 529.275 985.505 528.396 985.947 527.379C986.427 526.363 986.665 525.236 986.665 524C986.665 522.736 986.427 521.61 985.947 520.621C985.505 519.604 984.871 518.739 984.048 518.025C983.254 517.283 982.299 516.72 981.19 516.335C980.113 515.951 978.938 515.758 977.668 515.758C976.399 515.758 975.212 515.951 974.097 516.335C973.021 516.72 972.072 517.283 971.244 518.025C970.449 518.739 969.814 519.604 969.34 520.621C968.898 521.61 968.677 522.736 968.677 524C968.677 525.236 968.898 526.363 969.34 527.379C969.814 528.396 970.449 529.275 971.244 530.017C972.072 530.731 973.021 531.28 974.097 531.665C975.212 532.049 976.399 532.242 977.668 532.242Z" fill="#6CBBDD"/>
<path d="M145.411 538.423V516.047H135.18V509.577H165.017V516.047H154.834V538.423H145.411ZM170.948 538.423L185.652 509.577H194.932L209.684 538.423H199.881L188.365 513.574H192.076L180.56 538.423H170.948ZM178.99 532.819L181.417 526.802H197.692L200.119 532.819H178.99ZM220.445 538.423V509.577H235.673C238.719 509.577 241.336 510.003 243.525 510.854C245.746 511.706 247.459 512.942 248.665 514.563C249.87 516.157 250.473 518.052 250.473 520.25C250.473 522.42 249.87 524.302 248.665 525.896C247.459 527.462 245.746 528.67 243.525 529.522C241.336 530.346 238.719 530.758 235.673 530.758H225.68L229.867 527.338V538.423H220.445ZM241.051 538.423L232.77 527.915H242.811L251.139 538.423H241.051ZM229.867 528.203L225.68 524.453H235.102C237.069 524.453 238.529 524.082 239.48 523.341C240.464 522.599 240.955 521.569 240.955 520.25C240.955 518.904 240.464 517.86 239.48 517.118C238.529 516.376 237.069 516.006 235.102 516.006H225.68L229.867 512.255V528.203ZM263.761 538.423V509.577H279.513C283.193 509.577 286.429 510.168 289.221 511.349C292.012 512.53 294.186 514.192 295.74 516.335C297.327 518.478 298.12 521.033 298.12 524C298.12 526.94 297.327 529.495 295.74 531.665C294.186 533.808 292.012 535.47 289.221 536.651C286.429 537.832 283.193 538.423 279.513 538.423H263.761ZM273.183 531.912H279.132C281.036 531.912 282.685 531.61 284.081 531.006C285.509 530.374 286.619 529.467 287.412 528.286C288.206 527.077 288.602 525.648 288.602 524C288.602 522.324 288.206 520.896 287.412 519.714C286.619 518.533 285.509 517.64 284.081 517.036C282.685 516.404 281.036 516.088 279.132 516.088H273.183V531.912ZM319.828 520.744H335.294V526.843H319.828V520.744ZM320.494 532.118H337.912V538.423H311.167V509.577H337.293V515.882H320.494V532.118ZM373.168 538.423V509.577H388.92C392.601 509.577 395.836 510.168 398.628 511.349C401.421 512.53 403.596 514.192 405.147 516.335C406.736 518.478 407.525 521.033 407.525 524C407.525 526.94 406.736 529.495 405.147 531.665C403.596 533.808 401.421 535.47 398.628 536.651C395.836 537.832 392.601 538.423 388.92 538.423H373.168ZM382.589 531.912H388.539C390.443 531.912 392.094 531.61 393.49 531.006C394.919 530.374 396.029 529.467 396.818 528.286C397.613 527.077 398.01 525.648 398.01 524C398.01 522.324 397.613 520.896 396.818 519.714C396.029 518.533 394.919 517.64 393.49 517.036C392.094 516.404 390.443 516.088 388.539 516.088H382.589V531.912ZM429.238 520.744H444.703V526.843H429.238V520.744ZM429.9 532.118H447.319V538.423H420.573V509.577H446.701V515.882H429.9V532.118ZM491.236 520.744H506.706V526.843H491.236V520.744ZM491.904 532.118H509.322V538.423H482.576V509.577H508.704V515.882H491.904V532.118ZM534.346 539C531.62 539 528.982 538.712 526.448 538.135C523.943 537.53 521.895 536.761 520.305 535.827L523.402 529.81C524.892 530.635 526.603 531.321 528.54 531.871C530.505 532.393 532.459 532.654 534.396 532.654C535.693 532.654 536.742 532.558 537.537 532.365C538.326 532.146 538.9 531.871 539.248 531.541C539.628 531.184 539.816 530.772 539.816 530.305C539.816 529.646 539.468 529.124 538.773 528.739C538.072 528.354 537.172 528.038 536.057 527.791C534.948 527.544 533.712 527.297 532.348 527.049C531.013 526.802 529.666 526.486 528.303 526.102C526.967 525.717 525.747 525.223 524.638 524.618C523.529 523.986 522.624 523.176 521.928 522.187C521.227 521.17 520.88 519.893 520.88 518.354C520.88 516.624 521.42 515.058 522.497 513.657C523.606 512.255 525.256 511.129 527.447 510.277C529.633 509.426 532.365 509 535.632 509C537.818 509 539.96 509.22 542.057 509.659C544.182 510.071 546.069 510.69 547.72 511.514L544.816 517.571C543.227 516.83 541.659 516.28 540.103 515.923C538.552 515.538 537.045 515.346 535.583 515.346C534.28 515.346 533.237 515.47 532.442 515.717C531.648 515.937 531.079 516.239 530.731 516.624C530.378 517.008 530.207 517.448 530.207 517.942C530.207 518.574 530.538 519.082 531.206 519.467C531.901 519.824 532.807 520.126 533.916 520.374C535.058 520.593 536.295 520.827 537.63 521.074C538.994 521.321 540.34 521.637 541.676 522.022C543.039 522.379 544.276 522.874 545.385 523.506C546.494 524.11 547.383 524.92 548.051 525.937C548.752 526.926 549.099 528.176 549.099 529.687C549.099 531.363 548.542 532.915 547.433 534.343C546.356 535.744 544.723 536.871 542.531 537.723C540.373 538.574 537.647 539 534.346 539ZM561.54 538.423V509.577H576.767C579.814 509.577 582.43 510.003 584.621 510.854C586.84 511.706 588.556 512.942 589.76 514.563C590.968 516.157 591.57 518.052 591.57 520.25C591.57 522.42 590.968 524.302 589.76 525.896C588.556 527.489 586.84 528.725 584.621 529.604C582.43 530.456 579.814 530.882 576.767 530.882H566.777L570.961 527.338V538.423H561.54ZM570.961 528.203L566.777 524.453H576.199C578.164 524.453 579.626 524.082 580.576 523.341C581.558 522.599 582.049 521.569 582.049 520.25C582.049 518.904 581.558 517.86 580.576 517.118C579.626 516.376 578.164 516.006 576.199 516.006H566.777L570.961 512.255V528.203ZM598.585 538.423L613.288 509.577H622.566L637.319 538.423H627.517L615.998 513.574H619.712L608.194 538.423H598.585ZM606.626 532.819L609.049 526.802H625.326L627.754 532.819H606.626ZM648.081 538.423V509.577H663.309C666.356 509.577 668.972 510.003 671.163 510.854C673.382 511.706 675.093 512.942 676.301 514.563C677.504 516.157 678.112 518.052 678.112 520.25C678.112 522.42 677.504 524.302 676.301 525.896C675.093 527.462 673.382 528.67 671.163 529.522C668.972 530.346 666.356 530.758 663.309 530.758H653.314L657.503 527.338V538.423H648.081ZM668.685 538.423L660.406 527.915H670.445L678.774 538.423H668.685ZM657.503 528.203L653.314 524.453H662.74C664.705 524.453 666.162 524.082 667.117 523.341C668.1 522.599 668.591 521.569 668.591 520.25C668.591 518.904 668.1 517.86 667.117 517.118C666.162 516.376 664.705 516.006 662.74 516.006H653.314L657.503 512.255V528.203ZM708.004 539C705.371 539 702.932 538.643 700.674 537.929C698.456 537.187 696.518 536.143 694.873 534.797C693.251 533.451 691.981 531.871 691.065 530.058C690.143 528.217 689.685 526.198 689.685 524C689.685 521.802 690.143 519.797 691.065 517.984C691.981 516.143 693.251 514.549 694.873 513.203C696.518 511.857 698.456 510.827 700.674 510.113C702.932 509.371 705.371 509 708.004 509C711.083 509 713.827 509.467 716.238 510.401C718.683 511.335 720.709 512.681 722.332 514.44L716.332 519.137C715.256 518.038 714.064 517.201 712.767 516.624C711.497 516.047 710.068 515.758 708.484 515.758C707.115 515.758 705.862 515.951 704.72 516.335C703.577 516.72 702.595 517.283 701.773 518.025C700.978 518.739 700.343 519.604 699.868 520.621C699.421 521.637 699.201 522.764 699.201 524C699.201 525.236 699.421 526.363 699.868 527.379C700.343 528.396 700.978 529.275 701.773 530.017C702.595 530.731 703.577 531.28 704.72 531.665C705.862 532.049 707.115 532.242 708.484 532.242C710.068 532.242 711.497 531.953 712.767 531.376C714.064 530.799 715.256 529.962 716.332 528.863L722.332 533.56C720.709 535.291 718.683 536.637 716.238 537.599C713.827 538.533 711.083 539 708.004 539ZM734.623 538.423V509.577H744.044V538.423H734.623ZM758.836 538.423V509.577H766.59L780.394 529.192H776.299L789.722 509.577H797.476L797.57 538.423H788.91L788.816 520.992H790.29L780.251 535.58H776.061L765.735 520.992H767.545V538.423H758.836ZM812.328 538.423V509.577H821.75V538.423H812.328ZM845.206 520.744H860.671V526.843H845.206V520.744ZM845.874 532.118H863.288V538.423H836.547V509.577H862.669V515.882H845.874V532.118ZM876.605 538.423V509.577H884.365L902.734 528.78H899.069V509.577H908.302V538.423H900.542L882.174 519.22H885.839V538.423H876.605ZM930.131 538.423V516.047H919.898V509.577H949.735V516.047H939.552V538.423H930.131ZM977.668 539C975.002 539 972.546 538.629 970.294 537.887C968.043 537.146 966.072 536.102 964.394 534.755C962.744 533.382 961.458 531.788 960.537 529.975C959.615 528.162 959.157 526.17 959.157 524C959.157 521.83 959.615 519.838 960.537 518.025C961.458 516.212 962.744 514.632 964.394 513.286C966.072 511.912 968.043 510.854 970.294 510.113C972.546 509.371 975.002 509 977.668 509C980.367 509 982.823 509.371 985.047 510.113C987.299 510.854 989.248 511.912 990.898 513.286C992.548 514.632 993.834 516.212 994.756 518.025C995.705 519.838 996.18 521.83 996.18 524C996.18 526.17 995.705 528.176 994.756 530.017C993.834 531.83 992.548 533.409 990.898 534.755C989.248 536.102 987.299 537.146 985.047 537.887C982.823 538.629 980.367 539 977.668 539ZM977.668 532.242C978.938 532.242 980.113 532.049 981.19 531.665C982.299 531.28 983.254 530.731 984.048 530.017C984.871 529.275 985.505 528.396 985.947 527.379C986.427 526.363 986.665 525.236 986.665 524C986.665 522.736 986.427 521.61 985.947 520.621C985.505 519.604 984.871 518.739 984.048 518.025C983.254 517.283 982.299 516.72 981.19 516.335C980.113 515.951 978.938 515.758 977.668 515.758C976.399 515.758 975.212 515.951 974.097 516.335C973.021 516.72 972.072 517.283 971.244 518.025C970.449 518.739 969.814 519.604 969.34 520.621C968.898 521.61 968.677 522.736 968.677 524C968.677 525.236 968.898 526.363 969.34 527.379C969.814 528.396 970.449 529.275 971.244 530.017C972.072 530.731 973.021 531.28 974.097 531.665C975.212 532.049 976.399 532.242 977.668 532.242Z" stroke="#6CBBDD" stroke-width="0.6" mask="url(#path-5-outside-1_1207_618)"/>
</svg>
